<mxfile host="app.diagrams.net" agent="Mozilla/5.0 (Windows NT 10.0; Win64; x64) AppleWebKit/537.36 (KHTML, like Gecko) Chrome/131.0.0.0 Safari/537.36" version="24.8.3">
  <diagram name="Página-1" id="eenRqHWUglyc4wK-MD14">
    <mxGraphModel dx="1050" dy="522" grid="1" gridSize="10" guides="1" tooltips="1" connect="1" arrows="1" fold="1" page="1" pageScale="1" pageWidth="827" pageHeight="1169" math="0" shadow="0">
      <root>
        <mxCell id="0" />
        <mxCell id="1" parent="0" />
        <mxCell id="PxUuHtDrYkU4weaSaTVm-6" style="rounded=0;orthogonalLoop=1;jettySize=auto;html=1;exitX=0.5;exitY=1;exitDx=0;exitDy=0;entryX=0.5;entryY=0;entryDx=0;entryDy=0;" edge="1" parent="1" source="PxUuHtDrYkU4weaSaTVm-1" target="PxUuHtDrYkU4weaSaTVm-5">
          <mxGeometry relative="1" as="geometry" />
        </mxCell>
        <mxCell id="PxUuHtDrYkU4weaSaTVm-7" style="edgeStyle=none;shape=connector;rounded=0;orthogonalLoop=1;jettySize=auto;html=1;exitX=0.5;exitY=1;exitDx=0;exitDy=0;entryX=0.5;entryY=0;entryDx=0;entryDy=0;strokeColor=default;align=center;verticalAlign=middle;fontFamily=Helvetica;fontSize=11;fontColor=default;labelBackgroundColor=default;endArrow=classic;" edge="1" parent="1" source="PxUuHtDrYkU4weaSaTVm-1" target="PxUuHtDrYkU4weaSaTVm-4">
          <mxGeometry relative="1" as="geometry" />
        </mxCell>
        <mxCell id="PxUuHtDrYkU4weaSaTVm-8" style="edgeStyle=none;shape=connector;rounded=0;orthogonalLoop=1;jettySize=auto;html=1;exitX=0.5;exitY=1;exitDx=0;exitDy=0;entryX=0.5;entryY=0;entryDx=0;entryDy=0;strokeColor=default;align=center;verticalAlign=middle;fontFamily=Helvetica;fontSize=11;fontColor=default;labelBackgroundColor=default;endArrow=classic;" edge="1" parent="1" source="PxUuHtDrYkU4weaSaTVm-1" target="PxUuHtDrYkU4weaSaTVm-3">
          <mxGeometry relative="1" as="geometry" />
        </mxCell>
        <mxCell id="PxUuHtDrYkU4weaSaTVm-1" value="&lt;font style=&quot;font-size: 14px;&quot;&gt;Inicio&lt;/font&gt;" style="whiteSpace=wrap;html=1;align=center;" vertex="1" parent="1">
          <mxGeometry x="350" y="70" width="120" height="50" as="geometry" />
        </mxCell>
        <mxCell id="PxUuHtDrYkU4weaSaTVm-3" value="Reservas y contacto" style="whiteSpace=wrap;html=1;align=center;" vertex="1" parent="1">
          <mxGeometry x="510" y="160" width="100" height="40" as="geometry" />
        </mxCell>
        <mxCell id="PxUuHtDrYkU4weaSaTVm-4" value="Pedidos" style="whiteSpace=wrap;html=1;align=center;" vertex="1" parent="1">
          <mxGeometry x="360" y="160" width="100" height="40" as="geometry" />
        </mxCell>
        <mxCell id="PxUuHtDrYkU4weaSaTVm-5" value="Menú" style="whiteSpace=wrap;html=1;align=center;" vertex="1" parent="1">
          <mxGeometry x="210" y="160" width="100" height="40" as="geometry" />
        </mxCell>
      </root>
    </mxGraphModel>
  </diagram>
</mxfile>
